<svg width="1815" height="270" viewBox="0 0 1815 270" fill="none" xmlns="http://www.w3.org/2000/svg">
<path d="M148.373 218.717L77.7709 226.937C41.9646 230.975 24.0615 244.531 24.0615 267.605C24.0615 280.007 29.1148 289.957 39.2214 297.456C49.328 304.955 62.4666 308.705 78.6372 308.705C99.7167 308.705 116.609 302.215 129.315 289.236C142.02 276.257 148.373 258.952 148.373 237.32H163.533C163.533 263.567 155.014 285.631 137.977 303.513C121.229 321.107 100.294 329.904 75.1721 329.904C54.0926 329.904 36.6226 324.135 22.7621 312.598C9.19031 300.773 2.40444 285.487 2.40444 266.739C2.40444 250.011 8.61279 236.455 21.0295 226.072C33.4462 215.4 50.9162 208.767 73.4395 206.171L148.373 197.951V185.405C148.373 169.541 142.309 155.697 130.181 143.872C118.342 131.758 103.471 125.701 85.5675 125.701C69.6856 125.701 55.8251 129.884 43.9859 138.248C32.1468 146.612 24.4946 157.428 21.0295 170.695L0.671875 165.071C6.15832 146.9 16.5537 132.191 31.858 120.942C47.1623 109.694 64.4879 104.07 83.8349 104.07C107.224 104.07 127.438 111.713 144.475 126.999C161.511 141.997 170.03 160.024 170.03 181.078V325.145H148.373V218.717Z" fill="#23221F"/>
<path d="M222.139 108.829H243.796V411.671H222.139V108.829ZM271.084 149.496C252.892 167.09 243.796 189.731 243.796 217.419C243.796 245.108 252.892 267.893 271.084 285.775C289.564 303.369 312.088 312.166 338.654 312.166C365.22 312.166 387.598 303.369 405.79 285.775C424.271 267.893 433.511 245.108 433.511 217.419C433.511 189.731 424.271 167.09 405.79 149.496C387.598 131.614 365.22 122.673 338.654 122.673C312.088 122.673 289.564 131.614 271.084 149.496ZM261.555 300.917C240.186 278.997 229.502 251.165 229.502 217.419C229.502 183.674 240.186 155.841 261.555 133.921C283.212 112.001 309.489 101.041 340.386 101.041C372.439 101.041 399.582 112.001 421.817 133.921C444.051 155.841 455.168 183.674 455.168 217.419C455.168 251.165 444.051 278.997 421.817 300.917C399.582 322.837 372.439 333.797 340.386 333.797C309.489 333.797 283.212 322.837 261.555 300.917Z" fill="#23221F"/>
<path d="M538.633 148.631C520.441 166.225 511.345 188.866 511.345 216.554C511.345 244.243 520.441 267.028 538.633 284.91C557.113 302.504 579.637 311.3 606.203 311.3C632.768 311.3 655.147 302.504 673.339 284.91C691.82 267.028 701.06 244.243 701.06 216.554C701.06 188.866 691.82 166.225 673.339 148.631C655.147 130.749 632.768 121.808 606.203 121.808C579.637 121.808 557.113 130.749 538.633 148.631ZM523.473 300.052C500.949 278.132 489.688 250.299 489.688 216.554C489.688 182.809 500.949 154.976 523.473 133.056C545.996 111.136 573.573 100.176 606.203 100.176C638.832 100.176 666.409 111.136 688.932 133.056C711.456 154.976 722.717 182.809 722.717 216.554C722.717 250.299 711.456 278.132 688.932 300.052C666.409 321.972 638.832 332.932 606.203 332.932C573.573 332.932 545.996 321.972 523.473 300.052Z" fill="#23221F"/>
<path d="M766.102 325.145V0.670898H787.76V325.145H766.102Z" fill="#23221F"/>
<path d="M839.703 325.145V0.670898H861.36V325.145H839.703Z" fill="#23221F"/>
<path d="M953.585 148.631C935.393 166.225 926.297 188.866 926.297 216.554C926.297 244.243 935.393 267.028 953.585 284.91C972.065 302.504 994.589 311.3 1021.15 311.3C1047.72 311.3 1070.1 302.504 1088.29 284.91C1106.77 267.028 1116.01 244.243 1116.01 216.554C1116.01 188.866 1106.77 166.225 1088.29 148.631C1070.1 130.749 1047.72 121.808 1021.15 121.808C994.589 121.808 972.065 130.749 953.585 148.631ZM938.425 300.052C915.901 278.132 904.64 250.299 904.64 216.554C904.64 182.809 915.901 154.976 938.425 133.056C960.948 111.136 988.525 100.176 1021.15 100.176C1053.78 100.176 1081.36 111.136 1103.88 133.056C1126.41 154.976 1137.67 182.809 1137.67 216.554C1137.67 250.299 1126.41 278.132 1103.88 300.052C1081.36 321.972 1053.78 332.932 1021.15 332.932C988.525 332.932 960.948 321.972 938.425 300.052Z" fill="#23221F"/>
<path d="M1181.05 325.145V108.829H1202.71V325.145H1181.05ZM1275.48 126.999C1255.27 126.999 1238.08 133.2 1223.94 145.602C1209.79 157.716 1202.71 172.426 1202.71 189.731H1186.25C1186.25 168.965 1194.63 149.785 1211.37 132.191C1228.12 114.309 1248.05 105.368 1271.15 105.368H1283.28V126.999H1275.48Z" fill="#23221F"/>
<path d="M1318.92 64.2677C1315.74 61.0951 1314.15 57.0572 1314.15 52.1541C1314.15 47.2509 1315.74 43.213 1318.92 40.0404C1322.09 36.8678 1326.14 35.2814 1331.05 35.2814C1335.96 35.2814 1340 36.8678 1343.17 40.0404C1346.35 43.213 1347.94 47.2509 1347.94 52.1541C1347.94 57.0572 1346.35 61.0951 1343.17 64.2677C1340 67.4404 1335.96 69.0267 1331.05 69.0267C1326.14 69.0267 1322.09 67.4404 1318.92 64.2677ZM1320.22 325.145V108.829H1341.88V325.145H1320.22Z" fill="#23221F"/>
<path d="M1470.05 225.639C1443.2 220.448 1423.27 212.949 1410.28 203.142C1397.57 193.048 1391.22 180.213 1391.22 164.638C1391.22 147.045 1398.15 132.479 1412.01 120.942C1425.87 109.117 1443.2 103.205 1463.99 103.205C1483.33 103.205 1500.66 108.829 1515.96 120.077C1531.56 131.326 1542.82 146.324 1549.75 165.071L1529.82 173.724C1524.05 158.437 1515.39 146.468 1503.84 137.815C1492.29 129.162 1479.15 124.836 1464.42 124.836C1449.69 124.836 1437.42 128.586 1427.6 136.085C1417.79 143.295 1412.88 152.525 1412.88 163.773C1412.88 173.579 1417.35 181.655 1426.3 188C1435.54 194.057 1450.27 199.105 1470.48 203.142C1527.37 214.391 1555.81 236.167 1555.81 268.47C1555.81 285.775 1548.02 300.34 1532.42 312.166C1517.12 323.991 1498.78 329.904 1477.41 329.904C1456.62 329.904 1437.85 324.712 1421.11 314.329C1404.36 303.946 1392.37 289.957 1385.16 272.364L1403.78 261.115C1410.13 275.825 1419.66 287.361 1432.37 295.726C1445.36 304.09 1460.09 308.272 1476.55 308.272C1493.01 308.272 1506.72 304.523 1517.7 297.024C1528.67 289.236 1534.16 279.718 1534.16 268.47C1534.16 247.704 1512.79 233.427 1470.05 225.639Z" fill="#23221F"/>
<path d="M1793.01 206.171C1791.57 181.367 1782.19 161.177 1764.86 145.602C1747.82 129.739 1727.03 121.808 1702.49 121.808C1678.81 121.808 1658.45 129.595 1641.42 145.17C1624.38 160.745 1614.71 181.078 1612.4 206.171H1793.01ZM1612.4 226.505C1614.71 251.597 1624.52 272.075 1641.85 287.938C1659.46 303.513 1680.4 311.3 1704.65 311.3C1722.85 311.3 1739.31 306.83 1754.03 297.889C1769.05 288.948 1780.31 276.546 1787.82 260.682L1807.74 268.902C1798.5 288.515 1784.64 304.09 1766.16 315.627C1747.68 327.164 1727.18 332.932 1704.65 332.932C1672.6 332.932 1645.46 321.972 1623.22 300.052C1601.28 278.132 1590.3 250.299 1590.3 216.554C1590.3 182.809 1601.13 154.976 1622.79 133.056C1644.74 111.136 1671.3 100.176 1702.49 100.176C1733.67 100.176 1760.1 110.848 1781.75 132.191C1803.7 153.246 1814.67 179.925 1814.67 212.228C1814.67 215.4 1814.38 220.159 1813.81 226.505H1612.4Z" fill="#23221F"/>
</svg>
